<svg xmlns="http://www.w3.org/2000/svg" viewBox="0 0 1440 900" fill="none" preserveAspectRatio="xMinYMid slice" aria-hidden="true">
  <defs>
    <linearGradient id="traceGrad" x1="0%" y1="0%" x2="100%" y2="0%">
      <stop offset="0%" stop-color="#00C6FF" stop-opacity="0.55"/>
      <stop offset="100%" stop-color="#0070F3" stop-opacity="0.2"/>
    </linearGradient>
    <filter id="glow" x="-20%" y="-20%" width="140%" height="140%">
      <feGaussianBlur stdDeviation="2" result="b"/>
      <feMerge><feMergeNode in="b"/><feMergeNode in="SourceGraphic"/></feMerge>
    </filter>
  </defs>
  <g stroke="url(#traceGrad)" stroke-width="1.4" filter="url(#glow)" stroke-linecap="round" stroke-linejoin="round">
    <path d="M0 180 H320 L380 240 H520 L580 180 H720"/>
    <path d="M0 320 H260 L320 380 H480 L540 320 H680 L740 400 H900"/>
    <path d="M0 460 H200 L260 520 H420 L480 460 H620 L680 540 H840"/>
    <path d="M0 600 H300 L360 660 H500 L560 600 H760"/>
    <path d="M0 740 H180 L240 680 H400 L460 740 H600 L660 680 H820"/>
    <path d="M120 180 V420 M320 240 V520 M520 180 V380"/>
    <path d="M200 320 L200 600 M480 380 L480 660"/>
  </g>
  <g fill="#00C6FF">
    <circle cx="320" cy="180" r="4" opacity="0.7"/><circle cx="580" cy="180" r="3" opacity="0.5"/>
    <circle cx="480" cy="380" r="4" opacity="0.8"/><circle cx="740" cy="400" r="3" opacity="0.6"/>
    <circle cx="260" cy="520" r="4" opacity="0.7"/><circle cx="600" cy="740" r="3" opacity="0.5"/>
    <circle cx="180" cy="320" r="2.5" opacity="0.4"/><circle cx="620" cy="680" r="3" opacity="0.55"/>
  </g>
</svg>
