<svg xmlns="http://www.w3.org/2000/svg" viewBox="0 0 800 600" fill="none" aria-hidden="true">
  <g stroke="#0070F3" stroke-width="1.2" opacity="0.9">
    <path d="M80 120h200v80H80z"/>
    <path d="M520 80h200v120H520z"/>
    <path d="M300 400h180v100H300z"/>
    <circle cx="160" cy="160" r="8" fill="#0070F3"/>
    <circle cx="620" cy="140" r="8" fill="#0070F3"/>
    <circle cx="390" cy="450" r="8" fill="#0070F3"/>
    <path d="M280 160h120M400 160h80M480 200v60M200 200v180M200 380h100"/>
    <path d="M620 200v220M620 420h-140M480 420v-80"/>
    <path d="M100 300h400M500 300h200"/>
    <path d="M350 200l50 50-50 50M550 320l40-40 40 40-40 40"/>
  </g>
</svg>
